<svg width="34" height="34" viewBox="0 0 34 34" fill="none" xmlns="http://www.w3.org/2000/svg">
<g clip-path="url(#clip0)">
<path d="M12.2633 27.3372C12.0269 27.3813 11.9236 27.4922 11.9532 27.6692C11.9827 27.8462 12.1155 27.9053 12.3516 27.8462C12.588 27.7872 12.6912 27.6837 12.6615 27.5363C12.6322 27.3741 12.4994 27.3075 12.2633 27.3372Z" fill="#F2E5D7"/>
<path d="M11.0014 27.5145C10.7653 27.5145 10.6473 27.5952 10.6473 27.7578C10.6473 27.9497 10.7728 28.0306 11.0235 28.0011C11.2597 28.0011 11.3779 27.92 11.3779 27.7578C11.3779 27.5663 11.2523 27.4848 11.0014 27.5145Z" fill="#F2E5D7"/>
<path d="M9.27493 27.4476C9.21601 27.61 9.31199 27.7204 9.56265 27.7797C9.78399 27.8679 9.92425 27.8237 9.98317 27.6468C10.0275 27.4847 9.93154 27.3669 9.69546 27.2927C9.47403 27.2338 9.33393 27.2848 9.27493 27.4476Z" fill="#F2E5D7"/>
<path d="M32.1295 1.87027C30.8825 0.623502 29.3813 0 27.6249 0H6.37496C4.61905 0 3.11735 0.623502 1.87027 1.87027C0.623502 3.11728 0 4.61897 0 6.37496V27.6252C0 29.3813 0.623502 30.8828 1.87027 32.1296C3.11728 33.3766 4.61905 34.0001 6.37496 34.0001H11.3333C11.6577 34.0001 11.9014 33.9889 12.0636 33.9672C12.2258 33.9449 12.388 33.8489 12.5504 33.679C12.7129 33.5095 12.7939 33.2622 12.7939 32.9377C12.7939 32.8936 12.79 32.3914 12.7827 31.4323C12.7752 30.4728 12.7716 29.7129 12.7716 29.1521L12.2624 29.2407C11.9378 29.2996 11.5283 29.3256 11.0339 29.3182C10.5397 29.3107 10.0267 29.2592 9.49557 29.1632C8.9641 29.0672 8.46992 28.8459 8.01241 28.4994C7.55513 28.1523 7.23051 27.6987 7.03862 27.1381L6.8172 26.6286C6.66966 26.2896 6.43737 25.9131 6.12004 25.5002C5.80271 25.0868 5.48181 24.8064 5.15719 24.6589L5.0022 24.5482C4.89901 24.4744 4.8031 24.3855 4.71449 24.2823C4.62602 24.1788 4.55966 24.0754 4.51539 23.9724C4.47112 23.8689 4.50787 23.784 4.62602 23.7174C4.74418 23.6511 4.95793 23.6183 5.26798 23.6183L5.71052 23.6845C6.00576 23.7435 6.37078 23.9204 6.80634 24.2157C7.2416 24.5108 7.5994 24.8944 7.87983 25.3665C8.21942 25.9717 8.62855 26.4325 9.10838 26.7499C9.58783 27.0675 10.0712 27.2261 10.5581 27.2261C11.045 27.2261 11.4655 27.1892 11.8199 27.1157C12.1738 27.0418 12.5059 26.9308 12.8159 26.7833C12.9487 25.7947 13.3103 25.0343 13.9004 24.5031C13.0593 24.4145 12.3031 24.2818 11.6315 24.1046C10.9602 23.9274 10.2665 23.6398 9.55093 23.2412C8.83501 22.8427 8.24113 22.3487 7.76889 21.7581C7.29672 21.1674 6.90923 20.3927 6.60693 19.4338C6.30449 18.4744 6.15322 17.3675 6.15322 16.1133C6.15322 14.3278 6.73633 12.8076 7.90208 11.5534C7.35596 10.2106 7.40752 8.70553 8.05691 7.03785C8.48488 6.90496 9.11955 7.00466 9.9606 7.33673C10.8018 7.66903 11.4177 7.95318 11.8089 8.18895C12.2002 8.4248 12.5136 8.6242 12.7498 8.78671C14.1224 8.40301 15.539 8.2112 16.9998 8.2112C18.4606 8.2112 19.8774 8.40301 21.2502 8.78671L22.0913 8.25547C22.667 7.90115 23.3457 7.57653 24.1279 7.28153C24.9101 6.98645 25.5076 6.90519 25.921 7.03808C26.5848 8.70577 26.6442 10.2108 26.0977 11.5535C27.2634 12.8079 27.8467 14.3281 27.8467 16.1135C27.8467 17.368 27.6954 18.4786 27.393 19.4449C27.0908 20.4115 26.6999 21.1865 26.2199 21.7694C25.7405 22.3523 25.1427 22.8426 24.4271 23.2414C23.7114 23.6396 23.0178 23.9278 22.3462 24.1044C21.6747 24.2817 20.9186 24.4149 20.0774 24.5035C20.8443 25.1673 21.2279 26.2148 21.2279 27.6464V32.937C21.2279 33.1879 21.2645 33.3907 21.3383 33.5457C21.4126 33.7006 21.5304 33.8073 21.6927 33.8667C21.8557 33.9256 21.9989 33.9625 22.1246 33.9771C22.2504 33.9919 22.4308 33.9994 22.667 33.9994H27.6253C29.3812 33.9994 30.883 33.3759 32.1294 32.1289C33.3764 30.8819 33.9999 29.3801 33.9999 27.6242V6.37496C33.9998 4.61897 33.3763 3.11704 32.1295 1.87027Z" fill="#F2E5D7"/>
<path d="M6.72912 24.7474C6.62593 24.8209 6.64066 24.939 6.77347 25.1013C6.92124 25.2488 7.03917 25.271 7.12778 25.1676C7.23098 25.0941 7.21625 24.976 7.0832 24.8134C6.93574 24.6808 6.81774 24.6586 6.72912 24.7474Z" fill="#F2E5D7"/>
<path d="M5.99884 24.194C5.95464 24.2975 6.00628 24.3861 6.15382 24.4596C6.27174 24.5337 6.36796 24.5191 6.44153 24.4156C6.48573 24.3121 6.43409 24.2235 6.28655 24.1494C6.13901 24.1051 6.0431 24.12 5.99884 24.194Z" fill="#F2E5D7"/>
<path d="M7.41552 25.6108C7.28255 25.6843 7.28255 25.8175 7.41552 26.0091C7.54833 26.2012 7.67354 26.2527 7.79178 26.164C7.92466 26.0606 7.92466 25.9204 7.79178 25.7432C7.67385 25.5519 7.54833 25.5071 7.41552 25.6108Z" fill="#F2E5D7"/>
<path d="M8.19041 26.6065C8.05752 26.7248 8.08683 26.8645 8.27895 27.0274C8.4558 27.204 8.60342 27.2263 8.7215 27.0932C8.83965 26.9754 8.81011 26.8353 8.63296 26.673C8.45611 26.4962 8.30849 26.4739 8.19041 26.6065Z" fill="#F2E5D7"/>
</g>
<defs>
<clipPath id="clip0">
<rect width="34" height="34" fill="white"/>
</clipPath>
</defs>
</svg>
